<svg width="21" height="21" viewBox="0 0 21 21" fill="none" xmlns="http://www.w3.org/2000/svg">
<g clip-path="url(#clip0)">
<path d="M12.3559 9.30006C13.3811 10.3252 13.3811 11.9873 12.3559 13.0125C11.3308 14.0376 9.66867 14.0376 8.6435 13.0125C7.61834 11.9873 7.61834 10.3252 8.6435 9.30006C9.66867 8.2749 11.3308 8.2749 12.3559 9.30006Z" fill="white"/>
<path d="M18.375 3.93729H16.5612L15.248 1.31219H5.7507L4.43878 3.93858L2.62763 3.9418C1.18372 3.94438 0.00829759 5.12105 0.0070508 6.5656L0 17.0621C0 18.5098 1.17731 19.6878 2.62509 19.6878H18.375C19.8227 19.6878 21 18.5105 21 17.0627V6.56233C21 5.1146 19.8227 3.93729 18.375 3.93729ZM10.4997 16.4064C7.60476 16.4064 5.24949 14.0511 5.24949 11.1562C5.24949 8.26132 7.60476 5.90605 10.4997 5.90605C13.3946 5.90605 15.7499 8.26132 15.7499 11.1562C15.7499 14.0511 13.3946 16.4064 10.4997 16.4064Z" fill="white"/>
</g>
<defs>
<clipPath id="clip0">
<rect width="21" height="21" fill="white"/>
</clipPath>
</defs>
</svg>
