



<svg width="125" height="125" viewBox="0 0 125 125" fill="none" xmlns="http://www.w3.org/2000/svg">
<path d="M104.956 87.7686L119.36 88.623C122.778 81.2012 124.707 73.1445 125 64.7949L115.161 69.7021C114.624 69.9707 114.087 70.0928 113.525 70.0928C112.183 70.0928 110.889 69.3604 110.254 68.0664C109.351 66.2598 110.083 64.0625 111.89 63.1592L124.78 56.7139C124.023 48.4131 121.631 40.4541 117.798 33.2031L111.719 42.4072C111.011 43.4814 109.839 44.043 108.667 44.043C107.983 44.043 107.275 43.8477 106.641 43.4326C104.956 42.3096 104.492 40.0391 105.591 38.3545L113.525 26.3184C111.499 23.4863 109.229 20.7764 106.714 18.2617C103.345 14.8926 99.6582 11.9629 95.7275 9.47266L95.0684 20.4834C94.9463 22.4365 93.335 23.9258 91.4062 23.9258H91.1865C89.1602 23.8037 87.6221 22.0703 87.7441 20.0439L88.5986 5.63965C81.2012 2.22168 73.1445 0.292969 64.7949 0L69.7021 9.83887C70.6055 11.6455 69.873 13.8428 68.0664 14.7461C67.5293 15.0146 66.9922 15.1367 66.4307 15.1367C65.0879 15.1367 63.7939 14.4043 63.1592 13.1104L56.7139 0.219727C48.4131 0.976562 40.4541 3.36914 33.2031 7.20215L42.4072 13.2812C44.0918 14.4043 44.5557 16.6748 43.457 18.3594C42.749 19.4336 41.5771 19.9951 40.4053 19.9951C39.7217 19.9951 39.0137 19.7998 38.3789 19.3848L26.3428 11.4502C23.5107 13.4766 20.8008 15.7471 18.2861 18.2617C14.917 21.6309 11.9873 25.3174 9.49707 29.248L20.5078 29.9072C22.5342 30.0293 24.0723 31.7627 23.9502 33.7891C23.8281 35.7422 22.2168 37.2314 20.2881 37.2314H20.0684L5.66406 36.377C2.22168 43.7988 0.292969 51.8555 0 60.2051L9.83887 55.2979C11.6455 54.3945 13.8428 55.127 14.7461 56.9336C15.6494 58.7402 14.917 60.9375 13.1104 61.8408L0.219727 68.2861C0.976562 76.5869 3.36914 84.5459 7.20215 91.7969L13.2812 82.5928C14.4043 80.9082 16.6748 80.4443 18.3594 81.543C20.0439 82.666 20.5078 84.9365 19.4092 86.6211L11.4746 98.6572C13.501 101.489 15.7715 104.199 18.2861 106.714C21.6553 110.083 25.3418 113.013 29.2725 115.503L29.9316 104.492C30.0537 102.466 31.7871 100.952 33.8135 101.05C35.8398 101.172 37.3779 102.905 37.2559 104.932L36.4014 119.336C43.8232 122.754 51.8799 124.683 60.2295 124.976L55.3223 115.137C54.4189 113.33 55.1514 111.133 56.958 110.229C58.7646 109.326 60.9619 110.059 61.8652 111.865L68.3105 124.756C76.6113 123.999 84.5703 121.606 91.8213 117.773L82.6172 111.694C80.9326 110.571 80.4688 108.301 81.5674 106.616C82.6904 104.932 84.9609 104.468 86.6455 105.566L98.6816 113.501C101.514 111.475 104.224 109.204 106.738 106.689C110.107 103.32 113.037 99.6338 115.527 95.7031L104.517 95.0439C102.49 94.9219 100.952 93.1885 101.074 91.1621C101.196 89.1846 102.93 87.6465 104.956 87.7686ZM94.1162 64.1602C94.0918 64.6973 94.043 65.2588 93.9941 65.7959C93.9941 65.9424 93.9697 66.0645 93.9453 66.2109C92.1143 81.958 78.7354 94.165 62.5 94.165C46.2646 94.165 32.8857 81.958 31.0547 66.2109C31.0303 66.0645 31.0303 65.9424 31.0059 65.7959C30.957 65.2588 30.9082 64.6973 30.8838 64.1602C30.8594 63.5986 30.835 63.0615 30.835 62.5C30.835 61.9385 30.8594 61.4014 30.8838 60.8398C30.9082 60.5713 30.9082 60.3271 30.9326 60.0586C30.9326 60.0342 30.9326 60.0342 30.9326 60.0098C30.957 59.7656 30.9814 59.5215 31.0059 59.2529C31.0303 59.0576 31.0547 58.8623 31.0791 58.667C31.0791 58.5693 31.1035 58.4717 31.1279 58.374C31.1523 58.2275 31.1523 58.0811 31.1768 57.9346C31.25 57.4219 31.3477 56.8848 31.4453 56.3721C31.4697 56.25 31.4941 56.1035 31.5186 55.9814C34.5215 41.626 47.2656 30.8105 62.5244 30.8105C78.4912 30.8105 91.6748 42.627 93.8721 57.9834C93.8965 58.252 93.9453 58.5205 93.9697 58.7891C93.9941 58.9355 93.9941 59.0576 94.0186 59.2041C94.0674 59.7412 94.1162 60.3027 94.1406 60.8398C94.165 61.4014 94.1895 61.9385 94.1895 62.5C94.1895 63.0615 94.1406 63.5986 94.1162 64.1602Z" fill="white" fill-opacity="0.04"/>
</svg>
